<?xml version="1.0" standalone="no"?>
<!DOCTYPE svg PUBLIC "-//W3C//DTD SVG 20010904//EN"
 "http://www.w3.org/TR/2001/REC-SVG-20010904/DTD/svg10.dtd">
<svg version="1.0" xmlns="http://www.w3.org/2000/svg"
 width="1024.000000pt" height="1024.000000pt" viewBox="0 0 1024.000000 1024.000000"
 preserveAspectRatio="xMidYMid meet">

<g transform="translate(0.000000,1024.000000) scale(0.100000,-0.100000)"
fill="#000000" stroke="none">
<path d="M0 5120 l0 -5120 1238 1 c774 1 1185 5 1097 10 -327 20 -582 62 -800
134 -338 111 -599 271 -851 520 -365 360 -567 789 -638 1350 -25 192 -36 464
-36 845 l1 355 112 69 c62 38 149 89 194 113 44 24 87 50 93 58 7 8 18 15 25
15 22 0 210 98 237 124 25 24 143 84 195 100 19 6 22 4 16 -10 -5 -14 -3 -16
11 -11 10 4 20 7 22 7 2 0 4 8 4 19 0 10 9 21 19 24 14 3 18 1 14 -9 -7 -19
14 -17 66 6 24 11 49 20 56 20 18 0 77 30 100 51 17 15 95 49 112 49 3 0 -1
-8 -8 -17 -13 -15 -11 -16 16 -10 17 3 38 9 47 12 13 5 17 0 20 -22 2 -15 1
364 0 842 -4 878 9 1823 28 2100 47 666 233 1127 606 1499 375 376 840 562
1514 606 570 38 2674 38 3230 0 598 -40 1031 -195 1388 -494 317 -267 535
-628 647 -1071 89 -357 110 -848 102 -2440 -5 -1010 -13 -1290 -42 -1549 -53
-461 -205 -850 -452 -1156 -77 -95 -245 -258 -343 -331 -252 -189 -571 -320
-952 -391 -15 -2 -8 -18 40 -90 32 -47 80 -109 108 -138 27 -28 52 -60 56 -71
5 -11 24 -40 43 -63 19 -24 35 -47 35 -53 0 -5 5 -14 12 -21 6 -6 13 -23 14
-38 4 -39 12 -56 24 -49 5 3 16 -10 24 -30 11 -25 20 -34 28 -29 7 4 10 4 6
-1 -4 -4 -4 -13 1 -19 5 -6 19 -38 31 -71 23 -61 49 -103 35 -55 -16 53 -15
53 9 5 14 -27 25 -55 25 -62 1 -7 8 -10 18 -6 11 4 14 3 9 -5 -4 -6 6 -31 20
-54 25 -38 41 -66 115 -196 21 -37 24 -46 9 -37 -6 3 -7 -1 -4 -9 3 -9 10 -16
15 -16 4 0 11 -16 15 -36 4 -19 13 -38 20 -41 8 -3 14 -9 14 -14 0 -5 11 -32
24 -61 13 -29 26 -65 30 -80 3 -16 11 -28 16 -28 12 0 14 -29 3 -31 -5 -1 -69
-5 -143 -8 -74 -4 458 -8 1183 -9 l1317 -2 0 5120 0 5120 -5120 0 -5120 0 0
-5120z m650 -1498 c0 -5 -12 -14 -27 -21 l-28 -11 24 20 c26 22 31 24 31 12z
m-415 -242 c-3 -5 -12 -10 -18 -10 -7 0 -6 4 3 10 19 12 23 12 15 0z m-135
-85 c-7 -9 -15 -13 -19 -10 -3 3 1 10 9 15 21 14 24 12 10 -5z m-70 -39 c0 -3
-4 -8 -10 -11 -5 -3 -10 -1 -10 4 0 6 5 11 10 11 6 0 10 -2 10 -4z"/>
<path d="M3865 8183 c-475 -16 -707 -49 -934 -132 -348 -127 -621 -402 -746
-751 -61 -173 -96 -363 -116 -635 -22 -295 -23 -2892 -1 -2687 2 24 8 32 23
32 13 0 18 -4 13 -12 -5 -8 22 -9 107 -4 63 4 161 9 219 12 124 7 155 15 85
24 l-50 7 53 1 c31 1 52 -2 52 -9 0 -6 17 -9 42 -7 36 3 43 7 48 28 4 18 12
25 28 24 12 0 59 -1 105 -3 72 -1 79 -3 59 -14 -12 -7 -19 -16 -16 -20 4 -4
59 -7 123 -8 64 0 143 -4 176 -9 33 -5 111 -14 173 -21 61 -8 112 -17 112 -21
0 -4 -12 -8 -27 -8 -46 0 -20 -9 88 -31 71 -14 112 -28 128 -42 13 -12 -4 16
-38 63 -207 280 -331 598 -372 950 -15 131 -7 400 16 530 52 293 178 588 352
825 83 113 313 342 419 418 740 525 1716 482 2399 -105 356 -306 584 -729 651
-1204 24 -176 15 -464 -21 -634 -145 -690 -630 -1240 -1290 -1459 -117 -39
-298 -81 -348 -81 -42 0 -39 -15 8 -38 36 -17 43 -18 38 -6 -5 14 -3 14 16 3
11 -8 21 -17 21 -20 0 -4 24 -22 52 -40 100 -64 353 -275 501 -418 69 -66 206
-214 284 -306 23 -28 66 -79 97 -114 30 -36 53 -68 50 -73 -3 -4 1 -11 10 -14
8 -3 22 -17 31 -31 10 -14 12 -23 7 -19 -7 4 -6 -5 1 -24 l11 -30 86 0 c383 0
763 99 1001 261 88 59 230 198 301 293 139 186 235 467 267 781 45 433 53
2746 11 3305 -27 361 -100 626 -232 837 -61 99 -210 261 -306 333 -134 101
-353 195 -553 239 -136 29 -340 49 -620 61 -213 9 -2358 11 -2594 3z m3341
-614 c84 -15 177 -64 237 -125 182 -181 181 -463 -2 -643 -261 -259 -703 -112
-763 254 -35 209 94 422 297 493 95 33 140 38 231 21z m-4766 -3519 c-19 -11
-46 -19 -60 -19 -21 0 -19 3 15 19 55 26 92 26 45 0z m-110 -9 c-39 -21 -49
-19 -30 4 7 8 24 15 39 15 25 0 24 -1 -9 -19z m-83 -17 c-3 -3 -12 -4 -19 -1
-8 3 -5 6 6 6 11 1 17 -2 13 -5z m-80 -10 c-3 -3 -12 -4 -19 -1 -8 3 -5 6 6 6
11 1 17 -2 13 -5z m1313 -38 c0 -11 -19 -15 -25 -6 -3 5 1 10 9 10 9 0 16 -2
16 -4z"/>
<path d="M4978 6359 c-509 -63 -935 -432 -1062 -922 -62 -239 -53 -487 28
-724 103 -301 327 -558 615 -703 185 -93 354 -133 566 -133 281 1 526 82 748
249 243 183 408 444 474 754 24 115 24 362 0 477 -107 504 -482 882 -974 982
-118 24 -290 33 -395 20z"/>
<path d="M2061 3924 c0 -11 3 -14 6 -6 3 7 2 16 -1 19 -3 4 -6 -2 -5 -13z"/>
<path d="M5268 3183 c12 -2 30 -2 40 0 9 3 -1 5 -23 4 -22 0 -30 -2 -17 -4z"/>
<path d="M6413 2063 c15 -2 39 -2 55 0 15 2 2 4 -28 4 -30 0 -43 -2 -27 -4z"/>
</g>
</svg>
